<?xml version="1.0" standalone="no"?>
<!DOCTYPE svg PUBLIC "-//W3C//DTD SVG 20010904//EN"
 "http://www.w3.org/TR/2001/REC-SVG-20010904/DTD/svg10.dtd">
<svg version="1.0" xmlns="http://www.w3.org/2000/svg"
 width="500.000000pt" height="500.000000pt" viewBox="0 0 500.000000 500.000000"
 preserveAspectRatio="xMidYMid meet">

<g transform="translate(0.000000,500.000000) scale(0.100000,-0.100000)"
fill="#000000" stroke="none">
<path d="M4245 4541 c-28 -13 -608 -587 -1911 -1892 -1569 -1570 -1874 -1880
-1885 -1914 -17 -56 -14 -127 10 -173 22 -43 80 -98 118 -113 43 -16 141 -11
181 10 21 11 836 820 1908 1893 2020 2021 1899 1893 1896 2000 -2 78 -65 171
-135 197 -45 17 -137 13 -182 -8z"/>
</g>
</svg>
