<svg xmlns="http://www.w3.org/2000/svg" height="24" viewBox="0 -960 960 960" width="24"><path d="M791.231-551.231q-24.846-103.923-104.846-172.807-80-68.885-186.385-75.5v76.307l291.231 172ZM300-398.616l160-93.076v-307.846q-43.539 4.538-83.923 17.961-40.385 13.423-76.077 37.885v345.076Zm-106.308 61.077L260-375.692v-335.846q-49.769 44-74.885 104.538Q160-546.461 160-479.713q0 36.826 7.654 73.077t26.038 69.097ZM340-191.692 640-364l-160-93.077-266.308 154.154q23.077 36.538 54.923 65.615 31.846 29.077 71.385 45.616ZM480-160q80.385 0 150.846-38.231 70.462-38.23 115.462-105.154L680-341.077 388.308-173.692q21.384 8.384 44.82 11.038T480-160Zm286.308-177.539q19.923-38.23 28.346-79.73 8.423-41.5 3.808-84.269L500-677.384v185.692l266.308 154.153ZM480-480Zm.134 360q-74.673 0-140.41-28.339-65.737-28.34-114.365-76.922-48.627-48.582-76.993-114.257Q120-405.194 120-479.866q0-74.673 28.339-140.41 28.34-65.737 76.922-114.365 48.582-48.627 114.257-76.993Q405.194-840 479.866-840q74.673 0 140.41 28.339 65.737 28.34 114.365 76.922 48.627 48.582 76.993 114.257Q840-554.806 840-480.134q0 74.673-28.339 140.41-28.34 65.737-76.922 114.365-48.582 48.627-114.257 76.993Q554.806-120 480.134-120Z"/></svg>